<svg width="190" height="30" viewBox="0 0 190 30" fill="none" xmlns="http://www.w3.org/2000/svg">
<path d="M42.9434 24.43V3.90882H48.486V11.531H56.5754V3.90882H62.1181V24.43H56.5754V16.5147H48.486V24.43H42.9434Z" fill="white"/>
<path d="M65.3997 5.08146C65.3997 4.37787 65.6693 3.79155 66.2086 3.3225C66.7479 2.8339 67.427 2.5896 68.2459 2.5896C69.0648 2.5896 69.7439 2.8339 70.2832 3.3225C70.8225 3.79155 71.0921 4.37787 71.0921 5.08146C71.0921 5.7655 70.8225 6.35182 70.2832 6.84041C69.7439 7.32901 69.0648 7.57331 68.2459 7.57331C67.427 7.57331 66.7479 7.32901 66.2086 6.84041C65.6693 6.35182 65.3997 5.7655 65.3997 5.08146ZM65.6993 24.43V9.18569H70.7925V24.43H65.6993Z" fill="white"/>
<path d="M75.3547 22.114C74.0165 20.6678 73.3474 18.8013 73.3474 16.5147C73.3474 14.228 74.0165 12.3616 75.3547 10.9153C76.693 9.46908 78.3208 8.74595 80.2383 8.74595C81.6165 8.74595 82.8049 9.13683 83.8036 9.91859C84.263 10.2704 84.6225 10.6613 84.8821 11.0912H85.1818V9.18569H90.275V30H75.4446V26.0424H85.1818V22.0847H84.8821C84.6025 22.5147 84.243 22.886 83.8036 23.1987C82.8249 23.9218 81.6364 24.2834 80.2383 24.2834C78.3208 24.2834 76.693 23.5603 75.3547 22.114ZM79.4893 13.9349C78.8901 14.5603 78.5905 15.4202 78.5905 16.5147C78.5905 17.6091 78.8901 18.4691 79.4893 19.0945C80.0885 19.7199 80.8874 20.0326 81.8861 20.0326C82.8848 20.0326 83.6837 19.7199 84.2829 19.0945C84.8821 18.4691 85.1818 17.6091 85.1818 16.5147C85.1818 15.4202 84.8821 14.5603 84.2829 13.9349C83.6837 13.3095 82.8848 12.9968 81.8861 12.9968C80.8874 12.9968 80.0885 13.3095 79.4893 13.9349Z" fill="white"/>
<path d="M93.257 24.43V3.90882H98.3503V11.2378H98.6499C98.9295 10.7688 99.2891 10.3583 99.7285 10.0065C100.747 9.16615 101.936 8.74595 103.294 8.74595C105.131 8.74595 106.559 9.29318 107.578 10.3876C108.617 11.4626 109.136 13.0163 109.136 15.0489V24.43H104.043V15.7818C104.043 14.9023 103.803 14.2183 103.324 13.7297C102.844 13.2411 102.185 12.9968 101.346 12.9968C100.487 12.9968 99.7684 13.3095 99.1892 13.9349C98.6299 14.5407 98.3503 15.3518 98.3503 16.3681V24.43H93.257Z" fill="white"/>
<path d="M120.379 30V9.18569H125.473V11.2378H125.772C126.052 10.7883 126.431 10.3779 126.911 10.0065C128.009 9.16615 129.178 8.74595 130.416 8.74595C132.334 8.74595 133.962 9.48862 135.3 10.974C136.638 12.4398 137.307 14.3844 137.307 16.8078C137.307 19.2313 136.638 21.1857 135.3 22.671C133.962 24.1368 132.334 24.8697 130.416 24.8697C129.158 24.8697 127.989 24.4593 126.911 23.6385C126.431 23.2671 126.052 22.8469 125.772 22.3779H125.473V30H120.379ZM126.372 13.9935C125.772 14.658 125.473 15.5961 125.473 16.8078C125.473 18.0196 125.772 18.9577 126.372 19.6222C126.971 20.2867 127.77 20.6189 128.768 20.6189C129.767 20.6189 130.566 20.2867 131.165 19.6222C131.764 18.9577 132.064 18.0196 132.064 16.8078C132.064 15.5961 131.764 14.658 131.165 13.9935C130.566 13.329 129.767 12.9968 128.768 12.9968C127.77 12.9968 126.971 13.329 126.372 13.9935Z" fill="white"/>
<path d="M141.098 22.671C139.76 21.1857 139.091 19.2313 139.091 16.8078C139.091 14.3844 139.76 12.4398 141.098 10.974C142.436 9.48862 144.064 8.74595 145.982 8.74595C147.22 8.74595 148.388 9.16615 149.487 10.0065C149.946 10.3779 150.326 10.7883 150.625 11.2378H150.925V9.18569H156.018V24.43H150.925V22.3779H150.625C150.346 22.8469 149.966 23.2671 149.487 23.6385C148.408 24.4593 147.24 24.8697 145.982 24.8697C144.064 24.8697 142.436 24.1368 141.098 22.671ZM145.233 13.9935C144.633 14.658 144.334 15.5961 144.334 16.8078C144.334 18.0196 144.633 18.9577 145.233 19.6222C145.832 20.2867 146.631 20.6189 147.629 20.6189C148.628 20.6189 149.427 20.2867 150.026 19.6222C150.625 18.9577 150.925 18.0196 150.925 16.8078C150.925 15.5961 150.625 14.658 150.026 13.9935C149.427 13.329 148.628 12.9968 147.629 12.9968C146.631 12.9968 145.832 13.329 145.233 13.9935Z" fill="white"/>
<path d="M158.102 19.4463H163.195C163.275 19.7394 163.444 20.0131 163.704 20.2671C164.243 20.7948 165.022 21.0587 166.041 21.0587C167.439 21.0587 168.138 20.7166 168.138 20.0326C168.138 19.7199 167.939 19.4756 167.539 19.2997C167.14 19.1043 166.54 18.9088 165.741 18.7134C165.082 18.557 164.653 18.4593 164.453 18.4202C164.253 18.3811 163.834 18.2736 163.195 18.0977C162.556 17.9023 162.096 17.7362 161.817 17.5994C161.557 17.443 161.187 17.228 160.708 16.9544C160.249 16.6613 159.909 16.3681 159.689 16.0749C159.49 15.7622 159.3 15.3811 159.12 14.9316C158.94 14.4626 158.851 13.9642 158.851 13.4365C158.851 12.1466 159.44 11.0424 160.618 10.1238C161.797 9.20524 163.454 8.74595 165.592 8.74595C168.268 8.74595 170.385 9.60589 171.943 11.3258C172.562 12.0684 172.992 12.9186 173.232 13.8762H168.288C168.168 13.5635 168.028 13.3192 167.869 13.1433C167.409 12.6547 166.75 12.4104 165.891 12.4104C164.693 12.4104 164.094 12.7525 164.094 13.4365C164.094 13.7688 164.293 14.0228 164.693 14.1987C165.092 14.3746 165.701 14.5407 166.52 14.6971C168.578 15.1661 169.966 15.5766 170.685 15.9284C172.483 16.7883 173.381 18.1075 173.381 19.886C173.381 21.2932 172.742 22.4756 171.464 23.4332C170.206 24.3909 168.398 24.8697 166.041 24.8697C163.145 24.8697 160.938 23.9707 159.42 22.1727C158.741 21.3714 158.301 20.4626 158.102 19.4463Z" fill="white"/>
<path d="M174.72 19.4463H179.813C179.893 19.7394 180.063 20.0131 180.323 20.2671C180.862 20.7948 181.641 21.0587 182.66 21.0587C184.058 21.0587 184.757 20.7166 184.757 20.0326C184.757 19.7199 184.557 19.4756 184.158 19.2997C183.758 19.1043 183.159 18.9088 182.36 18.7134C181.701 18.557 181.272 18.4593 181.072 18.4202C180.872 18.3811 180.453 18.2736 179.813 18.0977C179.174 17.9023 178.715 17.7362 178.435 17.5994C178.176 17.443 177.806 17.228 177.327 16.9544C176.867 16.6613 176.528 16.3681 176.308 16.0749C176.108 15.7622 175.919 15.3811 175.739 14.9316C175.559 14.4626 175.469 13.9642 175.469 13.4365C175.469 12.1466 176.058 11.0424 177.237 10.1238C178.415 9.20524 180.073 8.74595 182.21 8.74595C184.887 8.74595 187.004 9.60589 188.562 11.3258C189.181 12.0684 189.611 12.9186 189.85 13.8762H184.907C184.787 13.5635 184.647 13.3192 184.487 13.1433C184.028 12.6547 183.369 12.4104 182.51 12.4104C181.312 12.4104 180.712 12.7525 180.712 13.4365C180.712 13.7688 180.912 14.0228 181.312 14.1987C181.711 14.3746 182.32 14.5407 183.139 14.6971C185.196 15.1661 186.585 15.5766 187.304 15.9284C189.101 16.7883 190 18.1075 190 19.886C190 21.2932 189.361 22.4756 188.083 23.4332C186.824 24.3909 185.017 24.8697 182.66 24.8697C179.764 24.8697 177.556 23.9707 176.038 22.1727C175.359 21.3714 174.92 20.4626 174.72 19.4463Z" fill="white"/>
<path fill-rule="evenodd" clip-rule="evenodd" d="M5.99209 5.86319V23.4528H23.9684L5.99209 5.86319ZM0 0V29.316H29.9605V0H0Z" fill="#FF6E30"/>
</svg>
